<?xml version="1.0" standalone="no"?><svg xmlns="http://www.w3.org/2000/svg" viewBox="0 0 1440 320"><path fill="#577399" fill-opacity="1" d="M0,320L0,64L72,64L72,288L144,288L144,0L216,0L216,64L288,64L288,96L360,96L360,256L432,256L432,96L504,96L504,64L576,64L576,192L648,192L648,192L720,192L720,64L792,64L792,128L864,128L864,64L936,64L936,256L1008,256L1008,288L1080,288L1080,192L1152,192L1152,160L1224,160L1224,128L1296,128L1296,64L1368,64L1368,192L1440,192L1440,320L1368,320L1368,320L1296,320L1296,320L1224,320L1224,320L1152,320L1152,320L1080,320L1080,320L1008,320L1008,320L936,320L936,320L864,320L864,320L792,320L792,320L720,320L720,320L648,320L648,320L576,320L576,320L504,320L504,320L432,320L432,320L360,320L360,320L288,320L288,320L216,320L216,320L144,320L144,320L72,320L72,320L0,320L0,320Z"></path></svg>